<svg width="777" height="800" viewBox="0 0 777 800" fill="none" xmlns="http://www.w3.org/2000/svg">
<g clip-path="url(#clip0_101_63)">
<path d="M536.343 252.062L417.928 139.093L310.269 36.386L202.611 139.093L84.1582 252.117L0 332.386L48.4602 378.617L132.599 298.348L251.071 185.325L310.269 128.85L369.468 185.325L487.864 298.294L572.079 378.617L620.539 332.386L536.343 252.062Z" fill="white"/>
<path d="M103.891 381.996V555.614H332.994V418.039H416.413V555.614H516.648V381.942L310.289 185.073L103.891 381.996Z" fill="white"/>
<rect x="310.269" y="358.16" width="135.743" height="197.58" fill="white"/>
<mask id="mask0_101_63" style="mask-type:luminance" maskUnits="userSpaceOnUse" x="342" y="444" width="73" height="74">
<path d="M414.598 444.74H342.072V518H414.598V444.74Z" fill="white"/>
</mask>
<g mask="url(#mask0_101_63)">
<path d="M399.564 487.914C399.564 489.212 398.582 490.204 397.297 490.204C396.013 490.204 395.031 489.212 395.031 487.914V479.52C395.031 480.817 394.049 481.809 392.764 481.809C391.48 481.809 390.498 480.817 390.498 479.52V474.941C390.498 476.238 389.516 477.23 388.232 477.23C386.947 477.23 385.965 476.238 385.965 474.941V471.812C384.756 471.889 383.548 471.889 382.188 471.889C372.82 471.889 366.852 470.133 364.812 468.836C366.852 467.539 372.82 465.784 382.188 465.784C391.556 465.784 397.524 467.539 399.564 468.836V487.914ZM356.199 495.545C355.595 494.935 356.426 491.119 361.034 485.014V494.325C358.39 495.698 356.653 496.003 356.199 495.545ZM382.188 462.731C370.478 462.731 361.034 465.478 361.034 468.836V480.13C360.657 480.588 360.279 481.046 359.826 481.58C356.955 485.243 350.533 494.095 354.084 497.682C354.764 498.369 355.746 498.751 356.879 498.751C361.337 498.751 368.665 493.638 374.709 487.609C375.162 487.762 375.615 487.914 376.144 487.914C378.259 487.914 379.921 486.235 379.921 484.099C379.921 481.962 378.259 480.283 376.144 480.283C374.028 480.283 372.367 481.962 372.367 484.099C372.367 484.556 372.442 485.014 372.593 485.396C371.838 486.159 371.007 486.922 370.251 487.533C369.647 486.541 369.269 485.32 369.269 484.022C369.269 480.207 372.291 477.154 376.068 477.154C379.846 477.154 382.868 480.207 382.868 484.022C382.868 487.838 379.846 490.89 376.068 490.89C375.917 490.89 375.691 490.89 375.54 490.89C372.216 494.019 366.398 498.98 360.959 500.887V514.624C360.959 517.981 370.478 520.728 382.112 520.728C393.746 520.728 403.265 517.981 403.265 514.624V468.836C403.341 465.478 393.897 462.731 382.188 462.731Z" fill="#CD1E37"/>
</g>
<g clip-path="url(#clip1_101_63)">
<mask id="mask1_101_63" style="mask-type:luminance" maskUnits="userSpaceOnUse" x="205" y="343" width="77" height="70">
<path d="M281.57 343.36H205.554V412.92H281.57V343.36Z" fill="white"/>
</mask>
<g mask="url(#mask1_101_63)">
<path d="M218.619 403.355C218.064 403.862 217.352 404.007 216.639 403.717C215.927 403.428 215.531 402.848 215.531 402.196C215.531 401.544 216.006 400.892 216.639 400.674C217.352 400.384 218.064 400.529 218.619 401.036C219.331 401.616 219.331 402.703 218.619 403.355ZM274.522 355.605L268.108 361.474L263.041 360.243L261.774 355.678L268.187 349.809C264.387 348.504 260.111 349.301 257.102 351.765C254.093 354.301 252.905 358.069 253.934 361.692L213.551 398.645C212.126 399.877 211.571 401.761 212.047 403.5C212.522 405.239 214.026 406.616 215.927 407.051C217.827 407.485 219.806 406.978 221.232 405.674L261.615 368.72C265.574 369.662 269.692 368.575 272.463 365.822C275.156 363.068 276.027 359.083 274.522 355.605Z" fill="#CD1E37"/>
<path d="M274.205 398.646L253.776 379.951L245.541 387.487L265.337 405.601L266.05 406.254L266.129 406.181C268.425 407.703 271.593 407.413 273.572 405.601C275.552 403.718 275.789 400.819 274.205 398.646Z" fill="#CD1E37"/>
<path d="M223.449 357.707L223.528 357.634L221.469 354.156L214.66 349.157L211.888 351.693L217.352 357.924L221.153 359.808L221.232 359.735L236.356 373.575L238.573 371.546L223.449 357.707Z" fill="#CD1E37"/>
</g>
</g>
<mask id="mask2_101_63" style="mask-type:luminance" maskUnits="userSpaceOnUse" x="298" y="303" width="159" height="152">
<path d="M398.853 303.275L298.634 358.476L356.496 454.086L456.715 398.885L398.853 303.275Z" fill="white"/>
</mask>
<g mask="url(#mask2_101_63)">
<mask id="mask3_101_63" style="mask-type:luminance" maskUnits="userSpaceOnUse" x="332" y="337" width="90" height="84">
<path fill-rule="evenodd" clip-rule="evenodd" d="M332.825 339.703L415.877 337.087L421.098 417.838L338.046 420.454L332.825 339.703Z" fill="white"/>
</mask>
<g mask="url(#mask3_101_63)">
<mask id="mask4_101_63" style="mask-type:luminance" maskUnits="userSpaceOnUse" x="332" y="337" width="90" height="84">
<path fill-rule="evenodd" clip-rule="evenodd" d="M332.825 339.703L415.877 337.087L421.098 417.838L338.046 420.454L332.825 339.703Z" fill="white"/>
</mask>
<g mask="url(#mask4_101_63)">
<mask id="mask5_101_63" style="mask-type:luminance" maskUnits="userSpaceOnUse" x="332" y="337" width="90" height="84">
<path fill-rule="evenodd" clip-rule="evenodd" d="M332.825 339.703L415.877 337.087L421.098 417.838L338.046 420.454L332.825 339.703Z" fill="white"/>
</mask>
<g mask="url(#mask5_101_63)">
<path d="M384.018 380.655C384.137 382.506 382.679 384.069 380.776 384.13L377.314 384.238C375.411 384.298 373.756 382.833 373.636 380.982L373.527 379.299L344.113 380.225L345.637 403.78C345.757 405.631 347.412 407.096 349.315 407.035L411.602 405.071C413.505 405.011 414.966 403.45 414.847 401.599L413.322 378.045L383.908 378.971L384.018 380.655Z" fill="#CD1E37"/>
<path d="M408.558 357.969L391.255 358.512L390.902 353.047C390.689 349.763 387.838 347.24 384.464 347.346L368.892 347.837C365.52 347.946 363.006 350.638 363.218 353.917L363.572 359.386L346.269 359.929C344.366 359.99 342.906 361.554 343.027 363.404L343.896 376.862L373.31 375.935L373.201 374.252L383.582 373.924L383.691 375.608L413.105 374.681L412.236 361.224C412.116 359.373 410.461 357.908 408.558 357.969ZM368.763 359.222L368.408 353.754C368.375 353.248 368.7 352.901 369.218 352.884L384.79 352.393C385.311 352.379 385.679 352.705 385.71 353.207L386.064 358.676L368.763 359.222Z" fill="#CD1E37"/>
</g>
</g>
</g>
</g>
<mask id="mask6_101_63" style="mask-type:luminance" maskUnits="userSpaceOnUse" x="205" y="444" width="94" height="92">
<path d="M298.634 444.74H205.554V535.02H298.634V444.74Z" fill="white"/>
</mask>
<g mask="url(#mask6_101_63)">
<path d="M220.194 456.307C220.97 457.059 220.97 458.188 220.194 458.846C219.419 459.598 218.255 459.598 217.577 458.846C216.898 458.094 216.801 456.965 217.577 456.307C218.352 455.649 219.516 455.649 220.194 456.307ZM214.959 453.768C213.213 455.461 212.826 457.906 213.892 459.975C214.377 461.103 218.643 464.959 218.643 464.959C224.558 470.695 234.253 478.313 239.877 481.134L227.079 493.642C226.303 494.394 226.303 495.522 227.079 496.275L230.957 500.036L262.663 469.285L258.784 465.523C258.009 464.771 256.845 464.771 256.069 465.523L243.174 477.937C240.168 472.388 232.411 463.078 226.497 457.341C226.497 457.341 222.425 453.204 221.358 452.734C219.225 451.699 216.704 452.075 214.959 453.768Z" fill="#CD1E37"/>
<path d="M258.687 526.932C259.463 527.685 260.627 527.685 261.402 526.932L285.157 503.892L267.995 487.247L269.353 485.93L287.775 501.353L290.393 498.814C291.169 498.062 291.169 496.933 290.393 496.181L265.668 472.2L233.963 502.952L258.687 526.932Z" fill="#CD1E37"/>
</g>
</g>
<g filter="url(#filter0_d_101_63)">
<path d="M64.6364 604H56.1818C55.6818 601.568 54.8068 599.432 53.5568 597.591C52.3295 595.75 50.8295 594.205 49.0568 592.955C47.3068 591.682 45.3636 590.727 43.2273 590.091C41.0909 589.455 38.8636 589.136 36.5455 589.136C32.3182 589.136 28.4886 590.205 25.0568 592.341C21.6477 594.477 18.9318 597.625 16.9091 601.784C14.9091 605.943 13.9091 611.045 13.9091 617.091C13.9091 623.136 14.9091 628.239 16.9091 632.398C18.9318 636.557 21.6477 639.705 25.0568 641.841C28.4886 643.977 32.3182 645.045 36.5455 645.045C38.8636 645.045 41.0909 644.727 43.2273 644.091C45.3636 643.455 47.3068 642.511 49.0568 641.261C50.8295 639.989 52.3295 638.432 53.5568 636.591C54.8068 634.727 55.6818 632.591 56.1818 630.182H64.6364C64 633.75 62.8409 636.943 61.1591 639.761C59.4773 642.58 57.3864 644.977 54.8864 646.955C52.3864 648.909 49.5795 650.398 46.4659 651.42C43.375 652.443 40.0682 652.955 36.5455 652.955C30.5909 652.955 25.2955 651.5 20.6591 648.591C16.0227 645.682 12.375 641.545 9.71591 636.182C7.05682 630.818 5.72727 624.455 5.72727 617.091C5.72727 609.727 7.05682 603.364 9.71591 598C12.375 592.636 16.0227 588.5 20.6591 585.591C25.2955 582.682 30.5909 581.227 36.5455 581.227C40.0682 581.227 43.375 581.739 46.4659 582.761C49.5795 583.784 52.3864 585.284 54.8864 587.261C57.3864 589.216 59.4773 591.602 61.1591 594.42C62.8409 597.216 64 600.409 64.6364 604ZM98.4801 653.091C93.7528 653.091 89.6051 651.966 86.0369 649.716C82.4915 647.466 79.7188 644.318 77.7188 640.273C75.7415 636.227 74.7528 631.5 74.7528 626.091C74.7528 620.636 75.7415 615.875 77.7188 611.807C79.7188 607.739 82.4915 604.58 86.0369 602.33C89.6051 600.08 93.7528 598.955 98.4801 598.955C103.207 598.955 107.344 600.08 110.889 602.33C114.457 604.58 117.23 607.739 119.207 611.807C121.207 615.875 122.207 620.636 122.207 626.091C122.207 631.5 121.207 636.227 119.207 640.273C117.23 644.318 114.457 647.466 110.889 649.716C107.344 651.966 103.207 653.091 98.4801 653.091ZM98.4801 645.864C102.071 645.864 105.026 644.943 107.344 643.102C109.662 641.261 111.378 638.841 112.491 635.841C113.605 632.841 114.162 629.591 114.162 626.091C114.162 622.591 113.605 619.33 112.491 616.307C111.378 613.284 109.662 610.841 107.344 608.977C105.026 607.114 102.071 606.182 98.4801 606.182C94.8892 606.182 91.9347 607.114 89.6165 608.977C87.2983 610.841 85.5824 613.284 84.4688 616.307C83.3551 619.33 82.7983 622.591 82.7983 626.091C82.7983 629.591 83.3551 632.841 84.4688 635.841C85.5824 638.841 87.2983 641.261 89.6165 643.102C91.9347 644.943 94.8892 645.864 98.4801 645.864ZM142.534 620.5V652H134.489V599.636H142.261V607.818H142.943C144.17 605.159 146.034 603.023 148.534 601.409C151.034 599.773 154.261 598.955 158.216 598.955C161.761 598.955 164.864 599.682 167.523 601.136C170.182 602.568 172.25 604.75 173.727 607.682C175.205 610.591 175.943 614.273 175.943 618.727V652H167.898V619.273C167.898 615.159 166.83 611.955 164.693 609.659C162.557 607.341 159.625 606.182 155.898 606.182C153.33 606.182 151.034 606.739 149.011 607.852C147.011 608.966 145.432 610.591 144.273 612.727C143.114 614.864 142.534 617.455 142.534 620.5ZM227.736 611.364L220.509 613.409C220.054 612.205 219.384 611.034 218.497 609.898C217.634 608.739 216.452 607.784 214.952 607.034C213.452 606.284 211.531 605.909 209.19 605.909C205.986 605.909 203.315 606.648 201.179 608.125C199.065 609.58 198.009 611.432 198.009 613.682C198.009 615.682 198.736 617.261 200.19 618.42C201.645 619.58 203.918 620.545 207.009 621.318L214.781 623.227C219.463 624.364 222.952 626.102 225.247 628.443C227.543 630.761 228.69 633.75 228.69 637.409C228.69 640.409 227.827 643.091 226.099 645.455C224.395 647.818 222.009 649.682 218.94 651.045C215.872 652.409 212.304 653.091 208.236 653.091C202.895 653.091 198.474 651.932 194.974 649.614C191.474 647.295 189.259 643.909 188.327 639.455L195.963 637.545C196.69 640.364 198.065 642.477 200.088 643.886C202.134 645.295 204.804 646 208.099 646C211.849 646 214.827 645.205 217.031 643.614C219.259 642 220.372 640.068 220.372 637.818C220.372 636 219.736 634.477 218.463 633.25C217.19 632 215.236 631.068 212.599 630.455L203.872 628.409C199.077 627.273 195.554 625.511 193.304 623.125C191.077 620.716 189.963 617.705 189.963 614.091C189.963 611.136 190.793 608.523 192.452 606.25C194.134 603.977 196.418 602.193 199.304 600.898C202.213 599.602 205.509 598.955 209.19 598.955C214.372 598.955 218.44 600.091 221.395 602.364C224.372 604.636 226.486 607.636 227.736 611.364ZM273.801 630.591V599.636H281.847V652H273.801V643.136H273.256C272.028 645.795 270.119 648.057 267.528 649.92C264.938 651.761 261.665 652.682 257.71 652.682C254.438 652.682 251.528 651.966 248.983 650.534C246.438 649.08 244.438 646.898 242.983 643.989C241.528 641.057 240.801 637.364 240.801 632.909V599.636H248.847V632.364C248.847 636.182 249.915 639.227 252.051 641.5C254.21 643.773 256.96 644.909 260.301 644.909C262.301 644.909 264.335 644.398 266.403 643.375C268.494 642.352 270.244 640.784 271.653 638.67C273.085 636.557 273.801 633.864 273.801 630.591ZM304.628 582.182V652H296.582V582.182H304.628ZM342.136 599.636V606.455H315V599.636H342.136ZM322.909 587.091H330.955V637C330.955 639.273 331.284 640.977 331.943 642.114C332.625 643.227 333.489 643.977 334.534 644.364C335.602 644.727 336.727 644.909 337.909 644.909C338.795 644.909 339.523 644.864 340.091 644.773C340.659 644.659 341.114 644.568 341.455 644.5L343.091 651.727C342.545 651.932 341.784 652.136 340.807 652.341C339.83 652.568 338.591 652.682 337.091 652.682C334.818 652.682 332.591 652.193 330.409 651.216C328.25 650.239 326.455 648.75 325.023 646.75C323.614 644.75 322.909 642.227 322.909 639.182V587.091ZM369.648 653.227C366.33 653.227 363.318 652.602 360.614 651.352C357.909 650.08 355.761 648.25 354.17 645.864C352.58 643.455 351.784 640.545 351.784 637.136C351.784 634.136 352.375 631.705 353.557 629.841C354.739 627.955 356.318 626.477 358.295 625.409C360.273 624.341 362.455 623.545 364.841 623.023C367.25 622.477 369.67 622.045 372.102 621.727C375.284 621.318 377.864 621.011 379.841 620.807C381.841 620.58 383.295 620.205 384.205 619.682C385.136 619.159 385.602 618.25 385.602 616.955V616.682C385.602 613.318 384.682 610.705 382.841 608.841C381.023 606.977 378.261 606.045 374.557 606.045C370.716 606.045 367.705 606.886 365.523 608.568C363.341 610.25 361.807 612.045 360.92 613.955L353.284 611.227C354.648 608.045 356.466 605.568 358.739 603.795C361.034 602 363.534 600.75 366.239 600.045C368.966 599.318 371.648 598.955 374.284 598.955C375.966 598.955 377.898 599.159 380.08 599.568C382.284 599.955 384.409 600.761 386.455 601.989C388.523 603.216 390.239 605.068 391.602 607.545C392.966 610.023 393.648 613.341 393.648 617.5V652H385.602V644.909H385.193C384.648 646.045 383.739 647.261 382.466 648.557C381.193 649.852 379.5 650.955 377.386 651.864C375.273 652.773 372.693 653.227 369.648 653.227ZM370.875 646C374.057 646 376.739 645.375 378.92 644.125C381.125 642.875 382.784 641.261 383.898 639.284C385.034 637.307 385.602 635.227 385.602 633.045V625.682C385.261 626.091 384.511 626.466 383.352 626.807C382.216 627.125 380.898 627.409 379.398 627.659C377.92 627.886 376.477 628.091 375.068 628.273C373.682 628.432 372.557 628.568 371.693 628.682C369.602 628.955 367.648 629.398 365.83 630.011C364.034 630.602 362.58 631.5 361.466 632.705C360.375 633.886 359.83 635.5 359.83 637.545C359.83 640.341 360.864 642.455 362.932 643.886C365.023 645.295 367.67 646 370.875 646ZM416.378 620.5V652H408.332V599.636H416.105V607.818H416.787C418.014 605.159 419.878 603.023 422.378 601.409C424.878 599.773 428.105 598.955 432.06 598.955C435.605 598.955 438.707 599.682 441.366 601.136C444.026 602.568 446.094 604.75 447.571 607.682C449.048 610.591 449.787 614.273 449.787 618.727V652H441.741V619.273C441.741 615.159 440.673 611.955 438.537 609.659C436.401 607.341 433.469 606.182 429.741 606.182C427.173 606.182 424.878 606.739 422.855 607.852C420.855 608.966 419.276 610.591 418.116 612.727C416.957 614.864 416.378 617.455 416.378 620.5ZM487.261 599.636V606.455H460.125V599.636H487.261ZM468.034 587.091H476.08V637C476.08 639.273 476.409 640.977 477.068 642.114C477.75 643.227 478.614 643.977 479.659 644.364C480.727 644.727 481.852 644.909 483.034 644.909C483.92 644.909 484.648 644.864 485.216 644.773C485.784 644.659 486.239 644.568 486.58 644.5L488.216 651.727C487.67 651.932 486.909 652.136 485.932 652.341C484.955 652.568 483.716 652.682 482.216 652.682C479.943 652.682 477.716 652.193 475.534 651.216C473.375 650.239 471.58 648.75 470.148 646.75C468.739 644.75 468.034 642.227 468.034 639.182V587.091ZM527.455 582.182H537.545L561.273 640.136H562.091L585.818 582.182H595.909V652H588V598.955H587.318L565.5 652H557.864L536.045 598.955H535.364V652H527.455V582.182ZM627.179 653.227C623.861 653.227 620.849 652.602 618.145 651.352C615.44 650.08 613.293 648.25 611.702 645.864C610.111 643.455 609.315 640.545 609.315 637.136C609.315 634.136 609.906 631.705 611.088 629.841C612.27 627.955 613.849 626.477 615.827 625.409C617.804 624.341 619.986 623.545 622.372 623.023C624.781 622.477 627.202 622.045 629.634 621.727C632.815 621.318 635.395 621.011 637.372 620.807C639.372 620.58 640.827 620.205 641.736 619.682C642.668 619.159 643.134 618.25 643.134 616.955V616.682C643.134 613.318 642.213 610.705 640.372 608.841C638.554 606.977 635.793 606.045 632.088 606.045C628.247 606.045 625.236 606.886 623.054 608.568C620.872 610.25 619.338 612.045 618.452 613.955L610.815 611.227C612.179 608.045 613.997 605.568 616.27 603.795C618.565 602 621.065 600.75 623.77 600.045C626.497 599.318 629.179 598.955 631.815 598.955C633.497 598.955 635.429 599.159 637.611 599.568C639.815 599.955 641.94 600.761 643.986 601.989C646.054 603.216 647.77 605.068 649.134 607.545C650.497 610.023 651.179 613.341 651.179 617.5V652H643.134V644.909H642.724C642.179 646.045 641.27 647.261 639.997 648.557C638.724 649.852 637.031 650.955 634.918 651.864C632.804 652.773 630.224 653.227 627.179 653.227ZM628.406 646C631.588 646 634.27 645.375 636.452 644.125C638.656 642.875 640.315 641.261 641.429 639.284C642.565 637.307 643.134 635.227 643.134 633.045V625.682C642.793 626.091 642.043 626.466 640.884 626.807C639.747 627.125 638.429 627.409 636.929 627.659C635.452 627.886 634.009 628.091 632.599 628.273C631.213 628.432 630.088 628.568 629.224 628.682C627.134 628.955 625.179 629.398 623.361 630.011C621.565 630.602 620.111 631.5 618.997 632.705C617.906 633.886 617.361 635.5 617.361 637.545C617.361 640.341 618.395 642.455 620.463 643.886C622.554 645.295 625.202 646 628.406 646ZM665.864 652V599.636H673.636V607.545H674.182C675.136 604.955 676.864 602.852 679.364 601.239C681.864 599.625 684.682 598.818 687.818 598.818C688.409 598.818 689.148 598.83 690.034 598.852C690.92 598.875 691.591 598.909 692.045 598.955V607.136C691.773 607.068 691.148 606.966 690.17 606.83C689.216 606.67 688.205 606.591 687.136 606.591C684.591 606.591 682.318 607.125 680.318 608.193C678.341 609.239 676.773 610.693 675.614 612.557C674.477 614.398 673.909 616.5 673.909 618.864V652H665.864ZM727.636 599.636V606.455H700.5V599.636H727.636ZM708.409 587.091H716.455V637C716.455 639.273 716.784 640.977 717.443 642.114C718.125 643.227 718.989 643.977 720.034 644.364C721.102 644.727 722.227 644.909 723.409 644.909C724.295 644.909 725.023 644.864 725.591 644.773C726.159 644.659 726.614 644.568 726.955 644.5L728.591 651.727C728.045 651.932 727.284 652.136 726.307 652.341C725.33 652.568 724.091 652.682 722.591 652.682C720.318 652.682 718.091 652.193 715.909 651.216C713.75 650.239 711.955 648.75 710.523 646.75C709.114 644.75 708.409 642.227 708.409 639.182V587.091Z" fill="white"/>
<path d="M64.6364 604V606H67.022L66.6057 603.651L64.6364 604ZM56.1818 604L54.2228 604.403L54.5512 606H56.1818V604ZM53.5568 597.591L51.8927 598.7L51.8974 598.707L51.9022 598.714L53.5568 597.591ZM49.0568 592.955L47.8805 594.572L47.8923 594.581L47.9043 594.589L49.0568 592.955ZM43.2273 590.091L42.6563 592.008L43.2273 590.091ZM25.0568 592.341L23.9998 590.643L23.9948 590.646L25.0568 592.341ZM16.9091 601.784L15.1105 600.909L15.1067 600.917L16.9091 601.784ZM16.9091 632.398L15.1066 633.264L15.1105 633.272L16.9091 632.398ZM25.0568 641.841L23.9948 643.536L23.9999 643.539L25.0568 641.841ZM43.2273 644.091L42.6563 642.174L43.2273 644.091ZM49.0568 641.261L50.2193 642.889L50.2232 642.886L49.0568 641.261ZM53.5568 636.591L51.8958 635.477L51.8927 635.482L53.5568 636.591ZM56.1818 630.182V628.182H54.5543L54.2236 629.775L56.1818 630.182ZM64.6364 630.182L66.6053 630.533L67.0246 628.182H64.6364V630.182ZM61.1591 639.761L59.4417 638.736V638.736L61.1591 639.761ZM54.8864 646.955L56.1182 648.53L56.127 648.523L54.8864 646.955ZM46.4659 651.42L45.8418 649.52L45.8376 649.522L46.4659 651.42ZM20.6591 648.591L19.5961 650.285L20.6591 648.591ZM9.71591 636.182L11.5078 635.293L9.71591 636.182ZM46.4659 582.761L45.8376 584.66L45.8418 584.661L46.4659 582.761ZM54.8864 587.261L53.6457 588.83L53.6545 588.837L54.8864 587.261ZM61.1591 594.42L59.4417 595.445L59.4453 595.451L61.1591 594.42ZM64.6364 602H56.1818V606H64.6364V602ZM58.1408 603.597C57.5939 600.937 56.6256 598.55 55.2114 596.467L51.9022 598.714C52.9881 600.314 53.7697 602.199 54.2228 604.403L58.1408 603.597ZM55.2209 596.482C53.8597 594.44 52.1876 592.715 50.2094 591.32L47.9043 594.589C49.4715 595.694 50.7994 597.06 51.8927 598.7L55.2209 596.482ZM50.2332 591.337C48.2943 589.927 46.1452 588.873 43.7982 588.174L42.6563 592.008C44.582 592.581 46.3194 593.437 47.8805 594.572L50.2332 591.337ZM43.7982 588.174C41.4693 587.48 39.0492 587.136 36.5455 587.136V591.136C38.6781 591.136 40.7126 591.429 42.6563 592.008L43.7982 588.174ZM36.5455 587.136C31.9625 587.136 27.7637 588.3 23.9999 590.643L26.1138 594.039C29.2135 592.109 32.6739 591.136 36.5455 591.136V587.136ZM23.9948 590.646C20.223 593.01 17.2721 596.465 15.1105 600.909L18.7077 602.659C20.5916 598.785 23.0725 595.945 26.1188 594.036L23.9948 590.646ZM15.1067 600.917C12.9428 605.417 11.9091 610.835 11.9091 617.091H15.9091C15.9091 611.256 16.8754 606.469 18.7115 602.651L15.1067 600.917ZM11.9091 617.091C11.9091 623.347 12.9428 628.765 15.1067 633.264L18.7115 631.531C16.8754 627.713 15.9091 622.926 15.9091 617.091H11.9091ZM15.1105 633.272C17.2721 637.717 20.223 641.172 23.9948 643.536L26.1188 640.146C23.0725 638.237 20.5916 635.397 18.7077 631.523L15.1105 633.272ZM23.9999 643.539C27.7637 645.882 31.9625 647.045 36.5455 647.045V643.045C32.6739 643.045 29.2135 642.073 26.1138 640.143L23.9999 643.539ZM36.5455 647.045C39.0492 647.045 41.4693 646.701 43.7982 646.008L42.6563 642.174C40.7126 642.753 38.6781 643.045 36.5455 643.045V647.045ZM43.7982 646.008C46.1386 645.311 48.2829 644.272 50.2193 642.889L47.8943 639.634C46.3307 640.751 44.5887 641.599 42.6563 642.174L43.7982 646.008ZM50.2232 642.886C52.1943 641.471 53.862 639.739 55.2209 637.7L51.8927 635.482C50.7971 637.125 49.4648 638.506 47.8904 639.637L50.2232 642.886ZM55.2178 637.705C56.625 635.607 57.5927 633.226 58.1401 630.588L54.2236 629.775C53.771 631.956 52.9887 633.848 51.8958 635.477L55.2178 637.705ZM56.1818 632.182H64.6364V628.182H56.1818V632.182ZM62.6674 629.831C62.0691 633.186 60.9873 636.146 59.4417 638.736L62.8765 640.786C64.6945 637.74 65.9309 634.314 66.6053 630.533L62.6674 629.831ZM59.4417 638.736C57.8806 641.352 55.9494 643.564 53.6457 645.386L56.127 648.523C58.8233 646.391 61.0739 643.807 62.8765 640.786L59.4417 638.736ZM53.6545 645.379C51.3428 647.186 48.7429 648.567 45.8418 649.52L47.09 653.321C50.4162 652.228 53.43 650.632 56.1182 648.53L53.6545 645.379ZM45.8376 649.522C42.9654 650.472 39.8722 650.955 36.5455 650.955V654.955C40.2642 654.955 43.7846 654.414 47.0942 653.319L45.8376 649.522ZM36.5455 650.955C30.9326 650.955 26.012 649.589 21.7221 646.897L19.5961 650.285C24.5789 653.411 30.2492 654.955 36.5455 654.955V650.955ZM21.7221 646.897C17.4274 644.202 14.0188 640.358 11.5078 635.293L7.92403 637.07C10.7312 642.732 14.6181 647.162 19.5961 650.285L21.7221 646.897ZM11.5078 635.293C9.01347 630.262 7.72727 624.216 7.72727 617.091H3.72727C3.72727 624.693 5.10017 631.374 7.92403 637.07L11.5078 635.293ZM7.72727 617.091C7.72727 609.966 9.01347 603.92 11.5078 598.888L7.92403 597.112C5.10017 602.808 3.72727 609.489 3.72727 617.091H7.72727ZM11.5078 598.888C14.0188 593.823 17.4274 589.98 21.7221 587.285L19.5961 583.897C14.6181 587.02 10.7312 591.449 7.92403 597.112L11.5078 598.888ZM21.7221 587.285C26.012 584.593 30.9326 583.227 36.5455 583.227V579.227C30.2492 579.227 24.5789 580.77 19.5961 583.897L21.7221 587.285ZM36.5455 583.227C39.8722 583.227 42.9654 583.71 45.8376 584.66L47.0942 580.863C43.7846 579.768 40.2642 579.227 36.5455 579.227V583.227ZM45.8418 584.661C48.7384 585.613 51.3353 587.003 53.6457 588.83L56.127 585.693C53.4374 583.565 50.4207 581.955 47.09 580.861L45.8418 584.661ZM53.6545 588.837C55.9534 590.634 57.8819 592.832 59.4417 595.445L62.8765 593.396C61.0726 590.373 58.8193 587.798 56.1182 585.686L53.6545 588.837ZM59.4453 595.451C60.9869 598.014 62.0684 600.971 62.6671 604.349L66.6057 603.651C65.9316 599.847 64.6949 596.418 62.8728 593.389L59.4453 595.451ZM86.0369 649.716L84.9653 651.405L84.9702 651.408L86.0369 649.716ZM77.7188 640.273L75.9219 641.151L75.9259 641.159L77.7188 640.273ZM77.7188 611.807L75.9239 610.924L75.92 610.933L77.7188 611.807ZM86.0369 602.33L84.9702 600.638L84.9653 600.641L86.0369 602.33ZM110.889 602.33L109.818 604.018L109.822 604.021L110.889 602.33ZM119.207 611.807L117.409 612.681L117.413 612.689L119.207 611.807ZM119.207 640.273L117.415 639.386L117.411 639.394L119.207 640.273ZM110.889 649.716L109.822 648.024L109.818 648.027L110.889 649.716ZM107.344 643.102L106.1 641.536L107.344 643.102ZM112.491 635.841L114.366 636.537V636.537L112.491 635.841ZM112.491 616.307L114.368 615.615L112.491 616.307ZM107.344 608.977L108.597 607.419L107.344 608.977ZM89.6165 608.977L88.3634 607.419L89.6165 608.977ZM84.4688 616.307L82.5921 615.615L84.4688 616.307ZM84.4688 635.841L82.5938 636.537V636.537L84.4688 635.841ZM89.6165 643.102L90.8602 641.536L89.6165 643.102ZM98.4801 651.091C94.0835 651.091 90.315 650.049 87.1037 648.024L84.9702 651.408C88.8952 653.883 93.4222 655.091 98.4801 655.091V651.091ZM87.1086 648.027C83.8956 645.988 81.3618 643.129 79.5116 639.386L75.9259 641.159C78.0757 645.507 81.0873 648.944 84.9653 651.405L87.1086 648.027ZM79.5156 639.394C77.6963 635.672 76.7528 631.256 76.7528 626.091H72.7528C72.7528 631.744 73.7867 636.782 75.9219 641.151L79.5156 639.394ZM76.7528 626.091C76.7528 620.878 77.6972 616.426 79.5175 612.681L75.92 610.933C73.7858 615.324 72.7528 620.395 72.7528 626.091H76.7528ZM79.5136 612.689C81.3647 608.924 83.8984 606.055 87.1086 604.018L84.9653 600.641C81.0845 603.104 78.0728 606.553 75.9239 610.924L79.5136 612.689ZM87.1037 604.021C90.315 601.996 94.0835 600.955 98.4801 600.955V596.955C93.4222 596.955 88.8952 598.163 84.9702 600.638L87.1037 604.021ZM98.4801 600.955C102.877 600.955 106.632 601.996 109.818 604.018L111.961 600.641C108.056 598.163 103.538 596.955 98.4801 596.955V600.955ZM109.822 604.021C113.052 606.058 115.582 608.923 117.409 612.681L121.006 610.933C118.878 606.554 115.863 603.101 111.956 600.638L109.822 604.021ZM117.413 612.689C119.253 616.433 120.207 620.881 120.207 626.091H124.207C124.207 620.392 123.162 615.317 121.002 610.924L117.413 612.689ZM120.207 626.091C120.207 631.253 119.254 635.666 117.415 639.386L121 641.159C123.161 636.789 124.207 631.747 124.207 626.091H120.207ZM117.411 639.394C115.585 643.13 113.055 645.986 109.822 648.024L111.956 651.408C115.86 648.946 118.875 645.507 121.004 641.151L117.411 639.394ZM109.818 648.027C106.632 650.049 102.877 651.091 98.4801 651.091V655.091C103.538 655.091 108.056 653.883 111.961 651.405L109.818 648.027ZM98.4801 647.864C102.423 647.864 105.845 646.846 108.588 644.668L106.1 641.536C104.206 643.04 101.719 643.864 98.4801 643.864V647.864ZM108.588 644.668C111.215 642.582 113.136 639.85 114.366 636.537L110.617 635.145C109.619 637.831 108.109 639.94 106.1 641.536L108.588 644.668ZM114.366 636.537C115.57 633.294 116.162 629.806 116.162 626.091H112.162C112.162 629.376 111.64 632.388 110.616 635.145L114.366 636.537ZM116.162 626.091C116.162 622.375 115.57 618.878 114.368 615.615L110.615 616.998C111.64 619.781 112.162 622.806 112.162 626.091H116.162ZM114.368 615.615C113.14 612.282 111.221 609.528 108.597 607.419L106.091 610.536C108.103 612.154 109.616 614.287 110.615 616.998L114.368 615.615ZM108.597 607.419C105.854 605.214 102.429 604.182 98.4801 604.182V608.182C101.713 608.182 104.197 609.014 106.091 610.536L108.597 607.419ZM98.4801 604.182C94.5312 604.182 91.1062 605.214 88.3634 607.419L90.8696 610.536C92.7632 609.014 95.2472 608.182 98.4801 608.182V604.182ZM88.3634 607.419C85.7392 609.528 83.8203 612.282 82.5921 615.615L86.3454 616.998C87.3445 614.287 88.8574 612.154 90.8696 610.536L88.3634 607.419ZM82.5921 615.615C81.3901 618.878 80.7983 622.375 80.7983 626.091H84.7983C84.7983 622.806 85.3201 619.781 86.3454 616.998L82.5921 615.615ZM80.7983 626.091C80.7983 629.806 81.39 633.294 82.5938 636.537L86.3437 635.145C85.3202 632.388 84.7983 629.376 84.7983 626.091H80.7983ZM82.5938 636.537C83.8238 639.85 85.7456 642.582 88.3727 644.668L90.8602 641.536C88.851 639.94 87.341 637.831 86.3437 635.145L82.5938 636.537ZM88.3727 644.668C91.1152 646.846 94.5369 647.864 98.4801 647.864V643.864C95.2415 643.864 92.7541 643.04 90.8602 641.536L88.3727 644.668ZM142.534 652V654H144.534V652H142.534ZM134.489 652H132.489V654H134.489V652ZM134.489 599.636V597.636H132.489V599.636H134.489ZM142.261 599.636H144.261V597.636H142.261V599.636ZM142.261 607.818H140.261V609.818H142.261V607.818ZM142.943 607.818V609.818H144.223L144.759 608.656L142.943 607.818ZM148.534 601.409L149.619 603.089L149.629 603.082L148.534 601.409ZM167.523 601.136L166.563 602.891L166.575 602.897L167.523 601.136ZM173.727 607.682L171.941 608.582L171.944 608.587L173.727 607.682ZM175.943 652V654H177.943V652H175.943ZM167.898 652H165.898V654H167.898V652ZM164.693 609.659L163.222 611.014L163.229 611.022L164.693 609.659ZM149.011 607.852L148.047 606.1L148.038 606.105L149.011 607.852ZM144.273 612.727L142.515 611.773L144.273 612.727ZM140.534 620.5V652H144.534V620.5H140.534ZM142.534 650H134.489V654H142.534V650ZM136.489 652V599.636H132.489V652H136.489ZM134.489 601.636H142.261V597.636H134.489V601.636ZM140.261 599.636V607.818H144.261V599.636H140.261ZM142.261 609.818H142.943V605.818H142.261V609.818ZM144.759 608.656C145.825 606.347 147.432 604.501 149.619 603.089L147.449 599.729C144.636 601.545 142.516 603.971 141.127 606.98L144.759 608.656ZM149.629 603.082C151.714 601.718 154.527 600.955 158.216 600.955V596.955C153.996 596.955 150.354 597.827 147.439 599.736L149.629 603.082ZM158.216 600.955C161.483 600.955 164.245 601.623 166.563 602.891L168.483 599.382C165.483 597.741 162.04 596.955 158.216 596.955V600.955ZM166.575 602.897C168.841 604.118 170.632 605.983 171.941 608.582L175.513 606.782C173.868 603.517 171.523 601.019 168.471 599.375L166.575 602.897ZM171.944 608.587C173.236 611.133 173.943 614.478 173.943 618.727H177.943C177.943 614.067 177.173 610.049 175.511 606.776L171.944 608.587ZM173.943 618.727V652H177.943V618.727H173.943ZM175.943 650H167.898V654H175.943V650ZM169.898 652V619.273H165.898V652H169.898ZM169.898 619.273C169.898 614.816 168.735 611.066 166.157 608.297L163.229 611.022C164.925 612.843 165.898 615.503 165.898 619.273H169.898ZM166.164 608.304C163.58 605.5 160.073 604.182 155.898 604.182V608.182C159.177 608.182 161.534 609.182 163.222 611.014L166.164 608.304ZM155.898 604.182C153.031 604.182 150.397 604.806 148.047 606.1L149.976 609.604C151.671 608.671 153.628 608.182 155.898 608.182V604.182ZM148.038 606.105C145.686 607.415 143.843 609.325 142.515 611.773L146.031 613.681C147.02 611.857 148.337 610.517 149.984 609.6L148.038 606.105ZM142.515 611.773C141.162 614.268 140.534 617.204 140.534 620.5H144.534C144.534 617.705 145.066 615.46 146.031 613.681L142.515 611.773ZM227.736 611.364L228.28 613.288L230.299 612.717L229.632 610.728L227.736 611.364ZM220.509 613.409L218.637 614.115L219.286 615.834L221.053 615.333L220.509 613.409ZM218.497 609.898L216.893 611.093L216.907 611.11L216.92 611.128L218.497 609.898ZM214.952 607.034L215.846 605.245V605.245L214.952 607.034ZM201.179 608.125L202.313 609.773L202.316 609.77L201.179 608.125ZM200.19 618.42L198.944 619.985L200.19 618.42ZM207.009 621.318L206.523 623.258L206.531 623.26L207.009 621.318ZM214.781 623.227L214.304 625.17L214.31 625.171L214.781 623.227ZM225.247 628.443L223.819 629.843L223.826 629.85L225.247 628.443ZM226.099 645.455L224.485 644.274L224.477 644.285L226.099 645.455ZM194.974 649.614L196.079 647.946L194.974 649.614ZM188.327 639.455L187.842 637.514L185.975 637.981L186.369 639.864L188.327 639.455ZM195.963 637.545L197.9 637.046L197.404 635.124L195.478 635.605L195.963 637.545ZM200.088 643.886L198.945 645.527L198.953 645.533L200.088 643.886ZM217.031 643.614L218.202 645.235L218.205 645.233L217.031 643.614ZM218.463 633.25L217.062 634.677L217.068 634.683L217.075 634.69L218.463 633.25ZM212.599 630.455L212.143 632.402L212.146 632.402L212.599 630.455ZM203.872 628.409L203.411 630.355L203.416 630.356L203.872 628.409ZM193.304 623.125L191.835 624.483L191.842 624.49L191.849 624.497L193.304 623.125ZM192.452 606.25L190.844 605.06L190.836 605.071L192.452 606.25ZM199.304 600.898L198.49 599.071L198.485 599.073L199.304 600.898ZM221.395 602.364L220.175 603.949L220.181 603.953L221.395 602.364ZM227.191 609.439L219.964 611.485L221.053 615.333L228.28 613.288L227.191 609.439ZM222.38 612.703C221.846 611.289 221.07 609.944 220.074 608.668L216.92 611.128C217.697 612.124 218.262 613.12 218.637 614.115L222.38 612.703ZM220.101 608.703C219.023 607.256 217.581 606.113 215.846 605.245L214.057 608.823C215.322 609.456 216.244 610.222 216.893 611.093L220.101 608.703ZM215.846 605.245C213.981 604.313 211.726 603.909 209.19 603.909V607.909C211.336 607.909 212.923 608.256 214.057 608.823L215.846 605.245ZM209.19 603.909C205.675 603.909 202.583 604.722 200.041 606.48L202.316 609.77C204.047 608.573 206.296 607.909 209.19 607.909V603.909ZM200.045 606.477C197.478 608.244 196.009 610.673 196.009 613.682H200.009C200.009 612.19 200.653 610.915 202.313 609.773L200.045 606.477ZM196.009 613.682C196.009 616.238 196.973 618.414 198.944 619.985L201.437 616.856C200.498 616.108 200.009 615.126 200.009 613.682H196.009ZM198.944 619.985C200.728 621.406 203.325 622.459 206.523 623.258L207.494 619.378C204.51 618.632 202.562 617.753 201.437 616.856L198.944 619.985ZM206.531 623.26L214.304 625.17L215.258 621.285L207.486 619.376L206.531 623.26ZM214.31 625.171C218.788 626.258 221.881 627.867 223.819 629.843L226.675 627.043C224.023 624.338 220.138 622.469 215.253 621.284L214.31 625.171ZM223.826 629.85C225.704 631.747 226.69 634.207 226.69 637.409H230.69C230.69 633.293 229.381 629.776 226.668 627.036L223.826 629.85ZM226.69 637.409C226.69 639.996 225.955 642.262 224.485 644.275L227.714 646.635C229.698 643.919 230.69 640.822 230.69 637.409H226.69ZM224.477 644.285C223.009 646.32 220.923 647.976 218.128 649.218L219.753 652.873C223.094 651.388 225.78 649.316 227.722 646.624L224.477 644.285ZM218.128 649.218C215.364 650.446 212.082 651.091 208.236 651.091V655.091C212.526 655.091 216.381 654.372 219.753 652.873L218.128 649.218ZM208.236 651.091C203.181 651.091 199.173 649.995 196.079 647.946L193.87 651.281C197.776 653.868 202.609 655.091 208.236 655.091V651.091ZM196.079 647.946C193.057 645.945 191.118 643.032 190.284 639.045L186.369 639.864C187.399 644.786 189.892 648.646 193.87 651.281L196.079 647.946ZM188.812 641.395L196.448 639.486L195.478 635.605L187.842 637.514L188.812 641.395ZM194.027 638.045C194.851 641.238 196.461 643.797 198.945 645.527L201.231 642.245C199.67 641.157 198.53 639.489 197.9 637.046L194.027 638.045ZM198.953 645.533C201.426 647.237 204.529 648 208.099 648V644C205.079 644 202.841 643.354 201.223 642.239L198.953 645.533ZM208.099 648C212.114 648 215.549 647.15 218.202 645.235L215.861 641.992C214.105 643.259 211.585 644 208.099 644V648ZM218.205 645.233C220.821 643.338 222.372 640.854 222.372 637.818H218.372C218.372 639.282 217.696 640.662 215.858 641.994L218.205 645.233ZM222.372 637.818C222.372 635.474 221.527 633.426 219.851 631.81L217.075 634.69C217.944 635.528 218.372 636.526 218.372 637.818H222.372ZM219.864 631.823C218.227 630.215 215.876 629.164 213.053 628.507L212.146 632.402C214.596 632.973 216.153 633.785 217.062 634.677L219.864 631.823ZM213.056 628.507L204.329 626.462L203.416 630.356L212.143 632.402L213.056 628.507ZM204.333 626.463C199.739 625.374 196.638 623.746 194.759 621.753L191.849 624.497C194.47 627.277 198.414 629.171 203.411 630.355L204.333 626.463ZM194.773 621.767C192.923 619.767 191.963 617.257 191.963 614.091H187.963C187.963 618.152 189.231 621.665 191.835 624.483L194.773 621.767ZM191.963 614.091C191.963 611.538 192.671 609.342 194.067 607.429L190.836 605.071C188.914 607.704 187.963 610.735 187.963 614.091H191.963ZM194.059 607.44C195.514 605.474 197.512 603.894 200.123 602.722L198.485 599.073C195.324 600.492 192.753 602.48 190.844 605.06L194.059 607.44ZM200.118 602.725C202.734 601.56 205.745 600.955 209.19 600.955V596.955C205.272 596.955 201.693 597.645 198.49 599.071L200.118 602.725ZM209.19 600.955C214.1 600.955 217.684 602.033 220.175 603.949L222.614 600.778C219.196 598.149 214.644 596.955 209.19 596.955V600.955ZM220.181 603.953C222.825 605.971 224.71 608.631 225.84 612L229.632 610.728C228.262 606.641 225.92 603.302 222.608 600.774L220.181 603.953ZM273.801 599.636V597.636H271.801V599.636H273.801ZM281.847 599.636H283.847V597.636H281.847V599.636ZM281.847 652V654H283.847V652H281.847ZM273.801 652H271.801V654H273.801V652ZM273.801 643.136H275.801V641.136H273.801V643.136ZM273.256 643.136V641.136H271.976L271.44 642.298L273.256 643.136ZM267.528 649.92L268.687 651.551L268.696 651.544L267.528 649.92ZM248.983 650.534L247.991 652.271L248.002 652.277L248.983 650.534ZM242.983 643.989L241.191 644.878L241.194 644.883L242.983 643.989ZM240.801 599.636V597.636H238.801V599.636H240.801ZM248.847 599.636H250.847V597.636H248.847V599.636ZM252.051 641.5L250.594 642.87L250.601 642.878L252.051 641.5ZM266.403 643.375L265.525 641.578L265.517 641.582L266.403 643.375ZM271.653 638.67L269.998 637.549L269.993 637.555L269.989 637.561L271.653 638.67ZM275.801 630.591V599.636H271.801V630.591H275.801ZM273.801 601.636H281.847V597.636H273.801V601.636ZM279.847 599.636V652H283.847V599.636H279.847ZM281.847 650H273.801V654H281.847V650ZM275.801 652V643.136H271.801V652H275.801ZM273.801 641.136H273.256V645.136H273.801V641.136ZM271.44 642.298C270.37 644.616 268.697 646.616 266.361 648.297L268.696 651.544C271.542 649.497 273.687 646.975 275.072 643.974L271.44 642.298ZM266.37 648.29C264.192 649.837 261.352 650.682 257.71 650.682V654.682C261.977 654.682 265.683 653.685 268.687 651.551L266.37 648.29ZM257.71 650.682C254.739 650.682 252.175 650.035 249.963 648.791L248.002 652.277C250.882 653.897 254.136 654.682 257.71 654.682V650.682ZM249.975 648.798C247.81 647.56 246.07 645.69 244.772 643.094L241.194 644.883C242.805 648.105 245.065 650.599 247.991 652.271L249.975 648.798ZM244.775 643.1C243.497 640.525 242.801 637.161 242.801 632.909H238.801C238.801 637.566 239.559 641.588 241.191 644.878L244.775 643.1ZM242.801 632.909V599.636H238.801V632.909H242.801ZM240.801 601.636H248.847V597.636H240.801V601.636ZM246.847 599.636V632.364H250.847V599.636H246.847ZM246.847 632.364C246.847 636.571 248.034 640.147 250.594 642.87L253.508 640.13C251.795 638.308 250.847 635.793 250.847 632.364H246.847ZM250.601 642.878C253.165 645.576 256.452 646.909 260.301 646.909V642.909C257.468 642.909 255.256 641.969 253.501 640.122L250.601 642.878ZM260.301 646.909C262.653 646.909 264.988 646.306 267.29 645.168L265.517 641.582C263.682 642.49 261.95 642.909 260.301 642.909V646.909ZM267.282 645.172C269.72 643.979 271.731 642.16 273.318 639.78L269.989 637.561C268.758 639.408 267.269 640.725 265.525 641.578L267.282 645.172ZM273.309 639.792C275.021 637.265 275.801 634.151 275.801 630.591H271.801C271.801 633.576 271.15 635.848 269.998 637.549L273.309 639.792ZM304.628 582.182H306.628V580.182H304.628V582.182ZM304.628 652V654H306.628V652H304.628ZM296.582 652H294.582V654H296.582V652ZM296.582 582.182V580.182H294.582V582.182H296.582ZM302.628 582.182V652H306.628V582.182H302.628ZM304.628 650H296.582V654H304.628V650ZM298.582 652V582.182H294.582V652H298.582ZM296.582 584.182H304.628V580.182H296.582V584.182ZM342.136 599.636H344.136V597.636H342.136V599.636ZM342.136 606.455V608.455H344.136V606.455H342.136ZM315 606.455H313V608.455H315V606.455ZM315 599.636V597.636H313V599.636H315ZM322.909 587.091V585.091H320.909V587.091H322.909ZM330.955 587.091H332.955V585.091H330.955V587.091ZM331.943 642.114L330.213 643.117L330.225 643.138L330.237 643.158L331.943 642.114ZM334.534 644.364L333.841 646.24L333.865 646.249L333.89 646.257L334.534 644.364ZM340.091 644.773L340.407 646.748L340.445 646.741L340.483 646.734L340.091 644.773ZM341.455 644.5L343.405 644.058L342.975 642.156L341.062 642.539L341.455 644.5ZM343.091 651.727L343.793 653.6L345.427 652.987L345.042 651.286L343.091 651.727ZM340.807 652.341L340.397 650.383L340.375 650.388L340.354 650.393L340.807 652.341ZM330.409 651.216L329.584 653.038L329.592 653.041L330.409 651.216ZM325.023 646.75L323.388 647.902L323.392 647.908L323.397 647.914L325.023 646.75ZM340.136 599.636V606.455H344.136V599.636H340.136ZM342.136 604.455H315V608.455H342.136V604.455ZM317 606.455V599.636H313V606.455H317ZM315 601.636H342.136V597.636H315V601.636ZM322.909 589.091H330.955V585.091H322.909V589.091ZM328.955 587.091V637H332.955V587.091H328.955ZM328.955 637C328.955 639.401 329.291 641.527 330.213 643.117L333.673 641.11C333.277 640.427 332.955 639.145 332.955 637H328.955ZM330.237 643.158C331.112 644.586 332.304 645.672 333.841 646.24L335.227 642.488C334.673 642.283 334.138 641.868 333.649 641.069L330.237 643.158ZM333.89 646.257C335.175 646.695 336.518 646.909 337.909 646.909V642.909C336.936 642.909 336.03 642.76 335.179 642.47L333.89 646.257ZM337.909 646.909C338.851 646.909 339.694 646.862 340.407 646.748L339.775 642.798C339.351 642.866 338.74 642.909 337.909 642.909V646.909ZM340.483 646.734C341.051 646.62 341.506 646.529 341.847 646.461L341.062 642.539C340.721 642.607 340.267 642.698 339.699 642.812L340.483 646.734ZM339.504 644.942L341.14 652.169L345.042 651.286L343.405 644.058L339.504 644.942ZM342.389 649.855C341.982 650.007 341.334 650.187 340.397 650.383L341.217 654.298C342.234 654.086 343.109 653.857 343.793 653.6L342.389 649.855ZM340.354 650.393C339.579 650.573 338.506 650.682 337.091 650.682V654.682C338.676 654.682 340.08 654.563 341.26 654.289L340.354 650.393ZM337.091 650.682C335.115 650.682 333.165 650.259 331.227 649.391L329.592 653.041C332.017 654.128 334.522 654.682 337.091 654.682V650.682ZM331.234 649.394C329.408 648.567 327.884 647.311 326.649 645.586L323.397 647.914C325.025 650.189 327.092 651.91 329.584 653.038L331.234 649.394ZM326.658 645.598C325.539 644.01 324.909 641.917 324.909 639.182H320.909C320.909 642.538 321.689 645.49 323.388 647.902L326.658 645.598ZM324.909 639.182V587.091H320.909V639.182H324.909ZM360.614 651.352L359.762 653.162L359.775 653.168L360.614 651.352ZM354.17 645.864L352.501 646.966L352.506 646.973L354.17 645.864ZM353.557 629.841L355.246 630.912L355.252 630.903L353.557 629.841ZM364.841 623.023L365.269 624.976L365.283 624.973L364.841 623.023ZM372.102 621.727L371.847 619.744L371.843 619.744L372.102 621.727ZM379.841 620.807L380.047 622.796L380.057 622.795L380.067 622.794L379.841 620.807ZM384.205 619.682L383.226 617.938L383.217 617.943L383.208 617.948L384.205 619.682ZM382.841 608.841L381.409 610.238L381.418 610.246L382.841 608.841ZM365.523 608.568L366.744 610.152L365.523 608.568ZM360.92 613.955L360.248 615.838L361.966 616.452L362.734 614.797L360.92 613.955ZM353.284 611.227L351.446 610.439L350.608 612.395L352.611 613.111L353.284 611.227ZM358.739 603.795L359.969 605.372L359.971 605.371L358.739 603.795ZM366.239 600.045L366.743 601.981L366.754 601.978L366.239 600.045ZM380.08 599.568L379.711 601.534L379.723 601.536L379.734 601.538L380.08 599.568ZM386.455 601.989L385.426 603.704L385.434 603.709L386.455 601.989ZM391.602 607.545L389.85 608.51V608.51L391.602 607.545ZM393.648 652V654H395.648V652H393.648ZM385.602 652H383.602V654H385.602V652ZM385.602 644.909H387.602V642.909H385.602V644.909ZM385.193 644.909V642.909H383.935L383.39 644.044L385.193 644.909ZM382.466 648.557L383.893 649.958V649.958L382.466 648.557ZM377.386 651.864L376.596 650.026L377.386 651.864ZM378.92 644.125L377.934 642.385L377.926 642.39L378.92 644.125ZM383.898 639.284L382.164 638.288L382.159 638.295L382.155 638.303L383.898 639.284ZM385.602 625.682H387.602V620.158L384.066 624.401L385.602 625.682ZM383.352 626.807L383.892 628.733L383.904 628.729L383.917 628.726L383.352 626.807ZM379.398 627.659L379.702 629.636L379.714 629.634L379.727 629.632L379.398 627.659ZM375.068 628.273L375.296 630.26L375.31 630.258L375.324 630.256L375.068 628.273ZM371.693 628.682L371.952 630.665L371.954 630.665L371.693 628.682ZM365.83 630.011L366.455 631.911L366.462 631.909L366.469 631.906L365.83 630.011ZM361.466 632.705L359.997 631.347L359.996 631.348L361.466 632.705ZM362.932 643.886L361.793 645.531L361.804 645.538L361.814 645.545L362.932 643.886ZM369.648 651.227C366.586 651.227 363.866 650.652 361.453 649.537L359.775 653.168C362.771 654.552 366.073 655.227 369.648 655.227V651.227ZM361.465 649.543C359.076 648.418 357.215 646.824 355.835 644.754L352.506 646.973C354.308 649.676 356.742 651.741 359.762 653.162L361.465 649.543ZM355.839 644.762C354.501 642.735 353.784 640.226 353.784 637.136H349.784C349.784 640.865 350.658 644.174 352.502 646.966L355.839 644.762ZM353.784 637.136C353.784 634.384 354.328 632.36 355.246 630.912L351.868 628.77C350.422 631.05 349.784 633.889 349.784 637.136H353.784ZM355.252 630.903C356.248 629.312 357.57 628.074 359.246 627.169L357.345 623.649C355.066 624.88 353.229 626.597 351.862 628.779L355.252 630.903ZM359.246 627.169C361.045 626.197 363.049 625.463 365.269 624.976L364.413 621.069C361.86 621.628 359.5 622.485 357.345 623.649L359.246 627.169ZM365.283 624.973C367.632 624.441 369.992 624.02 372.362 623.71L371.843 619.744C369.349 620.07 366.868 620.513 364.399 621.072L365.283 624.973ZM372.357 623.711C375.531 623.303 378.093 622.998 380.047 622.796L379.635 618.817C377.635 619.024 375.037 619.334 371.847 619.744L372.357 623.711ZM380.067 622.794C382.134 622.559 383.926 622.149 385.201 621.416L383.208 617.948C382.665 618.26 381.547 618.6 379.615 618.82L380.067 622.794ZM385.183 621.426C386.89 620.469 387.602 618.792 387.602 616.955H383.602C383.602 617.708 383.383 617.85 383.226 617.938L385.183 621.426ZM387.602 616.955V616.682H383.602V616.955H387.602ZM387.602 616.682C387.602 612.948 386.571 609.771 384.264 607.435L381.418 610.246C382.792 611.638 383.602 613.688 383.602 616.682H387.602ZM384.272 607.444C381.943 605.056 378.57 604.045 374.557 604.045V608.045C377.953 608.045 380.103 608.898 381.409 610.238L384.272 607.444ZM374.557 604.045C370.445 604.045 366.948 604.944 364.302 606.984L366.744 610.152C368.461 608.829 370.987 608.045 374.557 608.045V604.045ZM364.302 606.984C361.941 608.804 360.163 610.836 359.106 613.112L362.734 614.797C363.45 613.255 364.741 611.696 366.744 610.152L364.302 606.984ZM361.593 612.071L353.957 609.344L352.611 613.111L360.248 615.838L361.593 612.071ZM355.122 612.015C356.38 609.081 358.011 606.9 359.969 605.372L357.509 602.218C354.921 604.237 352.916 607.01 351.446 610.439L355.122 612.015ZM359.971 605.371C362.06 603.737 364.314 602.613 366.743 601.981L365.734 598.11C362.754 598.887 360.008 600.263 357.506 602.22L359.971 605.371ZM366.754 601.978C369.325 601.292 371.834 600.955 374.284 600.955V596.955C371.462 596.955 368.607 597.344 365.723 598.113L366.754 601.978ZM374.284 600.955C375.81 600.955 377.615 601.141 379.711 601.534L380.448 597.602C378.181 597.177 376.122 596.955 374.284 596.955V600.955ZM379.734 601.538C381.682 601.879 383.576 602.594 385.426 603.704L387.484 600.274C385.242 598.929 382.887 598.03 380.425 597.598L379.734 601.538ZM385.434 603.709C387.145 604.724 388.628 606.29 389.85 608.51L393.354 606.581C391.849 603.847 389.9 601.708 387.475 600.269L385.434 603.709ZM389.85 608.51C390.992 610.585 391.648 613.531 391.648 617.5H395.648C395.648 613.151 394.939 609.46 393.354 606.581L389.85 608.51ZM391.648 617.5V652H395.648V617.5H391.648ZM393.648 650H385.602V654H393.648V650ZM387.602 652V644.909H383.602V652H387.602ZM385.602 642.909H385.193V646.909H385.602V642.909ZM383.39 644.044C382.972 644.915 382.22 645.954 381.039 647.155L383.893 649.958C385.258 648.569 386.324 647.176 386.996 645.775L383.39 644.044ZM381.039 647.155C379.99 648.223 378.533 649.194 376.596 650.026L378.177 653.701C380.467 652.716 382.397 651.481 383.893 649.958L381.039 647.155ZM376.596 650.026C374.799 650.799 372.505 651.227 369.648 651.227V655.227C372.881 655.227 375.747 654.746 378.177 653.701L376.596 650.026ZM370.875 648C374.315 648 377.36 647.324 379.915 645.86L377.926 642.39C376.117 643.426 373.799 644 370.875 644V648ZM379.907 645.865C382.39 644.457 384.328 642.596 385.64 640.266L382.155 638.303C381.24 639.927 379.86 641.293 377.934 642.385L379.907 645.865ZM385.632 640.281C386.934 638.014 387.602 635.593 387.602 633.045H383.602C383.602 634.861 383.134 636.599 382.164 638.288L385.632 640.281ZM387.602 633.045V625.682H383.602V633.045H387.602ZM384.066 624.401C384.144 624.307 384.144 624.354 383.89 624.481C383.656 624.598 383.299 624.738 382.788 624.888L383.917 628.726C384.565 628.535 385.163 628.317 385.679 628.059C386.174 627.811 386.719 627.465 387.139 626.962L384.066 624.401ZM382.813 624.881C381.762 625.175 380.517 625.445 379.069 625.686L379.727 629.632C381.278 629.373 382.669 629.075 383.892 628.733L382.813 624.881ZM379.094 625.682C377.632 625.907 376.204 626.11 374.812 626.289L375.324 630.256C376.75 630.072 378.209 629.865 379.702 629.636L379.094 625.682ZM374.84 626.286C373.448 626.445 372.311 626.583 371.432 626.699L371.954 630.665C372.802 630.553 373.915 630.418 375.296 630.26L374.84 626.286ZM371.435 626.699C369.227 626.987 367.143 627.457 365.19 628.116L366.469 631.906C368.152 631.338 369.978 630.922 371.952 630.665L371.435 626.699ZM365.204 628.112C363.136 628.792 361.375 629.857 359.997 631.347L362.934 634.062C363.785 633.143 364.932 632.412 366.455 631.911L365.204 628.112ZM359.996 631.348C358.479 632.992 357.83 635.139 357.83 637.545H361.83C361.83 635.861 362.271 634.781 362.936 634.061L359.996 631.348ZM357.83 637.545C357.83 640.912 359.119 643.679 361.793 645.531L364.07 642.242C362.608 641.23 361.83 639.77 361.83 637.545H357.83ZM361.814 645.545C364.314 647.23 367.38 648 370.875 648V644C367.961 644 365.731 643.361 364.05 642.228L361.814 645.545ZM416.378 652V654H418.378V652H416.378ZM408.332 652H406.332V654H408.332V652ZM408.332 599.636V597.636H406.332V599.636H408.332ZM416.105 599.636H418.105V597.636H416.105V599.636ZM416.105 607.818H414.105V609.818H416.105V607.818ZM416.787 607.818V609.818H418.067L418.603 608.656L416.787 607.818ZM422.378 601.409L423.462 603.089L423.473 603.082L422.378 601.409ZM441.366 601.136L440.407 602.891L440.418 602.897L441.366 601.136ZM447.571 607.682L445.785 608.582L445.788 608.587L447.571 607.682ZM449.787 652V654H451.787V652H449.787ZM441.741 652H439.741V654H441.741V652ZM438.537 609.659L437.066 611.014L437.073 611.022L438.537 609.659ZM422.855 607.852L421.891 606.1L421.882 606.105L422.855 607.852ZM418.116 612.727L416.359 611.773L418.116 612.727ZM414.378 620.5V652H418.378V620.5H414.378ZM416.378 650H408.332V654H416.378V650ZM410.332 652V599.636H406.332V652H410.332ZM408.332 601.636H416.105V597.636H408.332V601.636ZM414.105 599.636V607.818H418.105V599.636H414.105ZM416.105 609.818H416.787V605.818H416.105V609.818ZM418.603 608.656C419.668 606.347 421.276 604.501 423.462 603.089L421.293 599.729C418.48 601.545 416.36 603.971 414.971 606.98L418.603 608.656ZM423.473 603.082C425.558 601.718 428.371 600.955 432.06 600.955V596.955C427.839 596.955 424.198 597.827 421.283 599.736L423.473 603.082ZM432.06 600.955C435.327 600.955 438.088 601.623 440.407 602.891L442.326 599.382C439.327 597.741 435.883 596.955 432.06 596.955V600.955ZM440.418 602.897C442.685 604.118 444.475 605.983 445.785 608.582L449.357 606.782C447.712 603.517 445.366 601.019 442.315 599.375L440.418 602.897ZM445.788 608.587C447.08 611.133 447.787 614.478 447.787 618.727H451.787C451.787 614.067 451.016 610.049 449.354 606.776L445.788 608.587ZM447.787 618.727V652H451.787V618.727H447.787ZM449.787 650H441.741V654H449.787V650ZM443.741 652V619.273H439.741V652H443.741ZM443.741 619.273C443.741 614.816 442.578 611.066 440.001 608.297L437.073 611.022C438.768 612.843 439.741 615.503 439.741 619.273H443.741ZM440.008 608.304C437.423 605.5 433.917 604.182 429.741 604.182V608.182C433.021 608.182 435.378 609.182 437.066 611.014L440.008 608.304ZM429.741 604.182C426.875 604.182 424.241 604.806 421.891 606.1L423.82 609.604C425.515 608.671 427.472 608.182 429.741 608.182V604.182ZM421.882 606.105C419.53 607.415 417.687 609.325 416.359 611.773L419.874 613.681C420.864 611.857 422.181 610.517 423.828 609.6L421.882 606.105ZM416.359 611.773C415.005 614.268 414.378 617.204 414.378 620.5H418.378C418.378 617.705 418.909 615.46 419.874 613.681L416.359 611.773ZM487.261 599.636H489.261V597.636H487.261V599.636ZM487.261 606.455V608.455H489.261V606.455H487.261ZM460.125 606.455H458.125V608.455H460.125V606.455ZM460.125 599.636V597.636H458.125V599.636H460.125ZM468.034 587.091V585.091H466.034V587.091H468.034ZM476.08 587.091H478.08V585.091H476.08V587.091ZM477.068 642.114L475.338 643.117L475.35 643.138L475.362 643.158L477.068 642.114ZM479.659 644.364L478.966 646.24L478.99 646.249L479.015 646.257L479.659 644.364ZM485.216 644.773L485.532 646.748L485.57 646.741L485.608 646.734L485.216 644.773ZM486.58 644.5L488.53 644.058L488.1 642.156L486.187 642.539L486.58 644.5ZM488.216 651.727L488.918 653.6L490.552 652.987L490.167 651.286L488.216 651.727ZM485.932 652.341L485.522 650.383L485.5 650.388L485.479 650.393L485.932 652.341ZM475.534 651.216L474.709 653.038L474.717 653.041L475.534 651.216ZM470.148 646.75L468.513 647.902L468.517 647.908L468.522 647.914L470.148 646.75ZM485.261 599.636V606.455H489.261V599.636H485.261ZM487.261 604.455H460.125V608.455H487.261V604.455ZM462.125 606.455V599.636H458.125V606.455H462.125ZM460.125 601.636H487.261V597.636H460.125V601.636ZM468.034 589.091H476.08V585.091H468.034V589.091ZM474.08 587.091V637H478.08V587.091H474.08ZM474.08 637C474.08 639.401 474.416 641.527 475.338 643.117L478.798 641.11C478.402 640.427 478.08 639.145 478.08 637H474.08ZM475.362 643.158C476.237 644.586 477.429 645.672 478.966 646.24L480.352 642.488C479.798 642.283 479.263 641.868 478.774 641.069L475.362 643.158ZM479.015 646.257C480.3 646.695 481.643 646.909 483.034 646.909V642.909C482.061 642.909 481.155 642.76 480.304 642.47L479.015 646.257ZM483.034 646.909C483.976 646.909 484.819 646.862 485.532 646.748L484.9 642.798C484.476 642.866 483.865 642.909 483.034 642.909V646.909ZM485.608 646.734C486.176 646.62 486.631 646.529 486.972 646.461L486.187 642.539C485.846 642.607 485.392 642.698 484.824 642.812L485.608 646.734ZM484.629 644.942L486.265 652.169L490.167 651.286L488.53 644.058L484.629 644.942ZM487.514 649.855C487.107 650.007 486.459 650.187 485.522 650.383L486.342 654.298C487.359 654.086 488.234 653.857 488.918 653.6L487.514 649.855ZM485.479 650.393C484.704 650.573 483.631 650.682 482.216 650.682V654.682C483.801 654.682 485.205 654.563 486.385 654.289L485.479 650.393ZM482.216 650.682C480.24 650.682 478.29 650.259 476.352 649.391L474.717 653.041C477.142 654.128 479.647 654.682 482.216 654.682V650.682ZM476.359 649.394C474.533 648.567 473.009 647.311 471.774 645.586L468.522 647.914C470.15 650.189 472.217 651.91 474.709 653.038L476.359 649.394ZM471.783 645.598C470.664 644.01 470.034 641.917 470.034 639.182H466.034C466.034 642.538 466.814 645.49 468.513 647.902L471.783 645.598ZM470.034 639.182V587.091H466.034V639.182H470.034ZM527.455 582.182V580.182H525.455V582.182H527.455ZM537.545 582.182L539.396 581.424L538.888 580.182H537.545V582.182ZM561.273 640.136L559.422 640.894L559.93 642.136H561.273V640.136ZM562.091 640.136V642.136H563.433L563.942 640.894L562.091 640.136ZM585.818 582.182V580.182H584.476L583.967 581.424L585.818 582.182ZM595.909 582.182H597.909V580.182H595.909V582.182ZM595.909 652V654H597.909V652H595.909ZM588 652H586V654H588V652ZM588 598.955H590V596.955H588V598.955ZM587.318 598.955V596.955H585.978L585.469 598.194L587.318 598.955ZM565.5 652V654H566.84L567.35 652.761L565.5 652ZM557.864 652L556.014 652.761L556.524 654H557.864V652ZM536.045 598.955L537.895 598.194L537.385 596.955H536.045V598.955ZM535.364 598.955V596.955H533.364V598.955H535.364ZM535.364 652V654H537.364V652H535.364ZM527.455 652H525.455V654H527.455V652ZM527.455 584.182H537.545V580.182H527.455V584.182ZM535.695 582.94L559.422 640.894L563.124 639.379L539.396 581.424L535.695 582.94ZM561.273 642.136H562.091V638.136H561.273V642.136ZM563.942 640.894L587.669 582.94L583.967 581.424L560.24 639.379L563.942 640.894ZM585.818 584.182H595.909V580.182H585.818V584.182ZM593.909 582.182V652H597.909V582.182H593.909ZM595.909 650H588V654H595.909V650ZM590 652V598.955H586V652H590ZM588 596.955H587.318V600.955H588V596.955ZM585.469 598.194L563.65 651.239L567.35 652.761L589.168 599.715L585.469 598.194ZM565.5 650H557.864V654H565.5V650ZM559.713 651.239L537.895 598.194L534.196 599.715L556.014 652.761L559.713 651.239ZM536.045 596.955H535.364V600.955H536.045V596.955ZM533.364 598.955V652H537.364V598.955H533.364ZM535.364 650H527.455V654H535.364V650ZM529.455 652V582.182H525.455V652H529.455ZM618.145 651.352L617.293 653.162L617.306 653.168L618.145 651.352ZM611.702 645.864L610.033 646.966L610.038 646.973L611.702 645.864ZM611.088 629.841L612.777 630.912L612.783 630.903L611.088 629.841ZM622.372 623.023L622.8 624.976L622.814 624.973L622.372 623.023ZM629.634 621.727L629.378 619.744L629.374 619.744L629.634 621.727ZM637.372 620.807L637.578 622.796L637.588 622.795L637.598 622.794L637.372 620.807ZM641.736 619.682L640.757 617.938L640.748 617.943L640.739 617.948L641.736 619.682ZM640.372 608.841L638.941 610.238L638.949 610.246L640.372 608.841ZM623.054 608.568L624.275 610.152H624.275L623.054 608.568ZM618.452 613.955L617.779 615.838L619.497 616.452L620.266 614.797L618.452 613.955ZM610.815 611.227L608.977 610.439L608.139 612.395L610.143 613.111L610.815 611.227ZM616.27 603.795L617.5 605.372L617.502 605.371L616.27 603.795ZM623.77 600.045L624.274 601.981L624.285 601.978L623.77 600.045ZM637.611 599.568L637.242 601.534L637.254 601.536L637.266 601.538L637.611 599.568ZM643.986 601.989L642.957 603.704L642.965 603.709L643.986 601.989ZM649.134 607.545L647.381 608.51V608.51L649.134 607.545ZM651.179 652V654H653.179V652H651.179ZM643.134 652H641.134V654H643.134V652ZM643.134 644.909H645.134V642.909H643.134V644.909ZM642.724 644.909V642.909H641.466L640.921 644.044L642.724 644.909ZM639.997 648.557L641.424 649.958V649.958L639.997 648.557ZM634.918 651.864L634.127 650.026L634.918 651.864ZM636.452 644.125L635.465 642.385L635.457 642.39L636.452 644.125ZM641.429 639.284L639.695 638.288L639.691 638.295L639.686 638.303L641.429 639.284ZM643.134 625.682H645.134V620.158L641.597 624.401L643.134 625.682ZM640.884 626.807L641.423 628.733L641.435 628.729L641.448 628.726L640.884 626.807ZM636.929 627.659L637.233 629.636L637.245 629.634L637.258 629.632L636.929 627.659ZM632.599 628.273L632.827 630.26L632.841 630.258L632.855 630.256L632.599 628.273ZM629.224 628.682L629.483 630.665L629.485 630.665L629.224 628.682ZM623.361 630.011L623.986 631.911L623.993 631.909L624 631.906L623.361 630.011ZM618.997 632.705L617.529 631.347L617.528 631.348L618.997 632.705ZM620.463 643.886L619.325 645.531L619.335 645.538L619.345 645.545L620.463 643.886ZM627.179 651.227C624.117 651.227 621.397 650.652 618.984 649.537L617.306 653.168C620.302 654.552 623.604 655.227 627.179 655.227V651.227ZM618.996 649.543C616.607 648.418 614.746 646.824 613.366 644.754L610.038 646.973C611.839 649.676 614.274 651.741 617.293 653.162L618.996 649.543ZM613.371 644.762C612.032 642.735 611.315 640.226 611.315 637.136H607.315C607.315 640.865 608.189 644.174 610.033 646.966L613.371 644.762ZM611.315 637.136C611.315 634.384 611.859 632.36 612.777 630.912L609.399 628.77C607.953 631.05 607.315 633.889 607.315 637.136H611.315ZM612.783 630.903C613.779 629.312 615.101 628.074 616.777 627.169L614.876 623.649C612.598 624.88 610.76 626.597 609.393 628.779L612.783 630.903ZM616.777 627.169C618.577 626.197 620.58 625.463 622.8 624.976L621.944 621.069C619.391 621.628 617.031 622.485 614.876 623.649L616.777 627.169ZM622.814 624.973C625.163 624.441 627.523 624.02 629.893 623.71L629.374 619.744C626.881 620.07 624.399 620.513 621.93 621.072L622.814 624.973ZM629.889 623.711C633.063 623.303 635.624 622.998 637.578 622.796L637.166 618.817C635.166 619.024 632.568 619.334 629.378 619.744L629.889 623.711ZM637.598 622.794C639.666 622.559 641.457 622.149 642.733 621.416L640.739 617.948C640.196 618.26 639.079 618.6 637.146 618.82L637.598 622.794ZM642.714 621.426C644.421 620.469 645.134 618.792 645.134 616.955H641.134C641.134 617.708 640.914 617.85 640.757 617.938L642.714 621.426ZM645.134 616.955V616.682H641.134V616.955H645.134ZM645.134 616.682C645.134 612.948 644.103 609.771 641.795 607.435L638.949 610.246C640.324 611.638 641.134 613.688 641.134 616.682H645.134ZM641.804 607.444C639.474 605.056 636.101 604.045 632.088 604.045V608.045C635.484 608.045 637.634 608.898 638.941 610.238L641.804 607.444ZM632.088 604.045C627.976 604.045 624.479 604.944 621.833 606.984L624.275 610.152C625.992 608.829 628.518 608.045 632.088 608.045V604.045ZM621.833 606.984C619.473 608.804 617.695 610.836 616.638 613.112L620.266 614.797C620.982 613.255 622.272 611.696 624.275 610.152L621.833 606.984ZM619.124 612.071L611.488 609.344L610.143 613.111L617.779 615.838L619.124 612.071ZM612.654 612.015C613.911 609.081 615.542 606.9 617.5 605.372L615.04 602.218C612.452 604.237 610.447 607.01 608.977 610.439L612.654 612.015ZM617.502 605.371C619.591 603.737 621.846 602.613 624.274 601.981L623.266 598.11C620.285 598.887 617.539 600.263 615.038 602.22L617.502 605.371ZM624.285 601.978C626.856 601.292 629.365 600.955 631.815 600.955V596.955C628.993 596.955 626.138 597.344 623.255 598.113L624.285 601.978ZM631.815 600.955C633.342 600.955 635.146 601.141 637.242 601.534L637.979 597.602C635.712 597.177 633.653 596.955 631.815 596.955V600.955ZM637.266 601.538C639.213 601.879 641.108 602.594 642.957 603.704L645.015 600.274C642.773 598.929 640.418 598.03 637.956 597.598L637.266 601.538ZM642.965 603.709C644.676 604.724 646.159 606.29 647.381 608.51L650.886 606.581C649.38 603.847 647.432 601.708 645.006 600.269L642.965 603.709ZM647.381 608.51C648.524 610.585 649.179 613.531 649.179 617.5H653.179C653.179 613.151 652.471 609.46 650.886 606.581L647.381 608.51ZM649.179 617.5V652H653.179V617.5H649.179ZM651.179 650H643.134V654H651.179V650ZM645.134 652V644.909H641.134V652H645.134ZM643.134 642.909H642.724V646.909H643.134V642.909ZM640.921 644.044C640.503 644.915 639.751 645.954 638.57 647.155L641.424 649.958C642.789 648.569 643.855 647.176 644.527 645.775L640.921 644.044ZM638.57 647.155C637.521 648.223 636.064 649.194 634.127 650.026L635.708 653.701C637.999 652.716 639.928 651.481 641.424 649.958L638.57 647.155ZM634.127 650.026C632.33 650.799 630.036 651.227 627.179 651.227V655.227C630.413 655.227 633.278 654.746 635.708 653.701L634.127 650.026ZM628.406 648C631.846 648 634.891 647.324 637.446 645.86L635.457 642.39C633.649 643.426 631.33 644 628.406 644V648ZM637.438 645.865C639.921 644.457 641.859 642.596 643.172 640.266L639.686 638.303C638.771 639.927 637.391 641.293 635.465 642.385L637.438 645.865ZM643.163 640.281C644.465 638.014 645.134 635.593 645.134 633.045H641.134C641.134 634.861 640.665 636.599 639.695 638.288L643.163 640.281ZM645.134 633.045V625.682H641.134V633.045H645.134ZM641.597 624.401C641.676 624.307 641.675 624.354 641.421 624.481C641.187 624.598 640.83 624.738 640.319 624.888L641.448 628.726C642.096 628.535 642.694 628.317 643.21 628.059C643.705 627.811 644.251 627.465 644.67 626.962L641.597 624.401ZM640.344 624.881C639.294 625.175 638.048 625.445 636.6 625.686L637.258 629.632C638.81 629.373 640.201 629.075 641.423 628.733L640.344 624.881ZM636.625 625.682C635.163 625.907 633.736 626.11 632.344 626.289L632.855 630.256C634.281 630.072 635.741 629.865 637.233 629.636L636.625 625.682ZM632.371 626.286C630.98 626.445 629.843 626.583 628.964 626.699L629.485 630.665C630.334 630.553 631.446 630.418 632.827 630.26L632.371 626.286ZM628.966 626.699C626.758 626.987 624.675 627.457 622.721 628.116L624 631.906C625.683 631.338 627.509 630.922 629.483 630.665L628.966 626.699ZM622.736 628.112C620.667 628.792 618.906 629.857 617.529 631.347L620.466 634.062C621.316 633.143 622.464 632.412 623.986 631.911L622.736 628.112ZM617.528 631.348C616.01 632.992 615.361 635.139 615.361 637.545H619.361C619.361 635.861 619.802 634.781 620.467 634.061L617.528 631.348ZM615.361 637.545C615.361 640.912 616.65 643.679 619.325 645.531L621.602 642.242C620.139 641.23 619.361 639.77 619.361 637.545H615.361ZM619.345 645.545C621.846 647.23 624.911 648 628.406 648V644C625.492 644 623.262 643.361 621.581 642.228L619.345 645.545ZM665.864 652H663.864V654H665.864V652ZM665.864 599.636V597.636H663.864V599.636H665.864ZM673.636 599.636H675.636V597.636H673.636V599.636ZM673.636 607.545H671.636V609.545H673.636V607.545ZM674.182 607.545V609.545H675.576L676.059 608.237L674.182 607.545ZM679.364 601.239L678.279 599.558L679.364 601.239ZM692.045 598.955H694.045V597.145L692.244 596.964L692.045 598.955ZM692.045 607.136L691.56 609.077L694.045 609.698V607.136H692.045ZM690.17 606.83L689.842 608.802L689.868 608.807L689.894 608.81L690.17 606.83ZM680.318 608.193L681.253 609.961L681.26 609.957L680.318 608.193ZM675.614 612.557L673.915 611.501L673.912 611.506L675.614 612.557ZM673.909 652V654H675.909V652H673.909ZM667.864 652V599.636H663.864V652H667.864ZM665.864 601.636H673.636V597.636H665.864V601.636ZM671.636 599.636V607.545H675.636V599.636H671.636ZM673.636 609.545H674.182V605.545H673.636V609.545ZM676.059 608.237C676.851 606.085 678.282 604.317 680.448 602.919L678.279 599.558C675.445 601.388 673.421 603.824 672.305 606.854L676.059 608.237ZM680.448 602.919C682.607 601.526 685.045 600.818 687.818 600.818V596.818C684.319 596.818 681.12 597.724 678.279 599.558L680.448 602.919ZM687.818 600.818C688.386 600.818 689.106 600.829 689.983 600.852L690.085 596.853C689.189 596.83 688.432 596.818 687.818 596.818V600.818ZM689.983 600.852C690.857 600.874 691.467 600.907 691.846 600.945L692.244 596.964C691.714 596.911 690.984 596.876 690.085 596.853L689.983 600.852ZM690.045 598.955V607.136H694.045V598.955H690.045ZM692.531 605.196C692.134 605.097 691.394 604.981 690.447 604.849L689.894 608.81C690.901 608.951 691.412 609.04 691.56 609.077L692.531 605.196ZM690.499 604.857C689.426 604.678 688.304 604.591 687.136 604.591V608.591C688.106 608.591 689.006 608.663 689.842 608.802L690.499 604.857ZM687.136 604.591C684.303 604.591 681.7 605.188 679.376 606.429L681.26 609.957C682.936 609.062 684.879 608.591 687.136 608.591V604.591ZM679.383 606.425C677.099 607.633 675.265 609.33 673.915 611.501L677.312 613.613C678.28 612.056 679.582 610.845 681.253 609.961L679.383 606.425ZM673.912 611.506C672.563 613.692 671.909 616.165 671.909 618.864H675.909C675.909 616.835 676.392 615.104 677.315 613.607L673.912 611.506ZM671.909 618.864V652H675.909V618.864H671.909ZM673.909 650H665.864V654H673.909V650ZM727.636 599.636H729.636V597.636H727.636V599.636ZM727.636 606.455V608.455H729.636V606.455H727.636ZM700.5 606.455H698.5V608.455H700.5V606.455ZM700.5 599.636V597.636H698.5V599.636H700.5ZM708.409 587.091V585.091H706.409V587.091H708.409ZM716.455 587.091H718.455V585.091H716.455V587.091ZM717.443 642.114L715.713 643.117L715.725 643.138L715.737 643.158L717.443 642.114ZM720.034 644.364L719.341 646.24L719.365 646.249L719.39 646.257L720.034 644.364ZM725.591 644.773L725.907 646.748L725.945 646.741L725.983 646.734L725.591 644.773ZM726.955 644.5L728.905 644.058L728.475 642.156L726.562 642.539L726.955 644.5ZM728.591 651.727L729.293 653.6L730.927 652.987L730.542 651.286L728.591 651.727ZM726.307 652.341L725.897 650.383L725.875 650.388L725.854 650.393L726.307 652.341ZM715.909 651.216L715.084 653.038L715.092 653.041L715.909 651.216ZM710.523 646.75L708.888 647.902L708.892 647.908L708.896 647.914L710.523 646.75ZM725.636 599.636V606.455H729.636V599.636H725.636ZM727.636 604.455H700.5V608.455H727.636V604.455ZM702.5 606.455V599.636H698.5V606.455H702.5ZM700.5 601.636H727.636V597.636H700.5V601.636ZM708.409 589.091H716.455V585.091H708.409V589.091ZM714.455 587.091V637H718.455V587.091H714.455ZM714.455 637C714.455 639.401 714.791 641.527 715.713 643.117L719.173 641.11C718.777 640.427 718.455 639.145 718.455 637H714.455ZM715.737 643.158C716.612 644.586 717.804 645.672 719.341 646.24L720.727 642.488C720.173 642.283 719.638 641.868 719.149 641.069L715.737 643.158ZM719.39 646.257C720.675 646.695 722.018 646.909 723.409 646.909V642.909C722.436 642.909 721.53 642.76 720.679 642.47L719.39 646.257ZM723.409 646.909C724.351 646.909 725.194 646.862 725.907 646.748L725.275 642.798C724.851 642.866 724.24 642.909 723.409 642.909V646.909ZM725.983 646.734C726.551 646.62 727.006 646.529 727.347 646.461L726.562 642.539C726.221 642.607 725.767 642.698 725.199 642.812L725.983 646.734ZM725.004 644.942L726.64 652.169L730.542 651.286L728.905 644.058L725.004 644.942ZM727.889 649.855C727.482 650.007 726.834 650.187 725.897 650.383L726.717 654.298C727.734 654.086 728.609 653.857 729.293 653.6L727.889 649.855ZM725.854 650.393C725.079 650.573 724.006 650.682 722.591 650.682V654.682C724.176 654.682 725.58 654.563 726.76 654.289L725.854 650.393ZM722.591 650.682C720.615 650.682 718.665 650.259 716.727 649.391L715.092 653.041C717.517 654.128 720.022 654.682 722.591 654.682V650.682ZM716.734 649.394C714.907 648.567 713.384 647.311 712.149 645.586L708.896 647.914C710.525 650.189 712.593 651.91 715.084 653.038L716.734 649.394ZM712.158 645.598C711.039 644.01 710.409 641.917 710.409 639.182H706.409C706.409 642.538 707.189 645.49 708.888 647.902L712.158 645.598ZM710.409 639.182V587.091H706.409V639.182H710.409Z" fill="white"/>
</g>
<defs>
<filter id="filter0_d_101_63" x="1.72729" y="581.227" width="730.864" height="80" filterUnits="userSpaceOnUse" color-interpolation-filters="sRGB">
<feFlood flood-opacity="0" result="BackgroundImageFix"/>
<feColorMatrix in="SourceAlpha" type="matrix" values="0 0 0 0 0 0 0 0 0 0 0 0 0 0 0 0 0 0 127 0" result="hardAlpha"/>
<feOffset dy="4"/>
<feGaussianBlur stdDeviation="2"/>
<feComposite in2="hardAlpha" operator="out"/>
<feColorMatrix type="matrix" values="0 0 0 0 0 0 0 0 0 0 0 0 0 0 0 0 0 0 0.25 0"/>
<feBlend mode="normal" in2="BackgroundImageFix" result="effect1_dropShadow_101_63"/>
<feBlend mode="normal" in="SourceGraphic" in2="effect1_dropShadow_101_63" result="shape"/>
</filter>
<clipPath id="clip0_101_63">
<rect width="620.539" height="592" fill="white"/>
</clipPath>
<clipPath id="clip1_101_63">
<rect width="76.016" height="69.56" fill="white" transform="translate(205.554 343.36)"/>
</clipPath>
</defs>
</svg>
